<?xml version="1.0" standalone="no"?>
<!DOCTYPE svg PUBLIC "-//W3C//DTD SVG 1.1//EN" "http://www.w3.org/Graphics/SVG/1.1/DTD/svg11.dtd">
<svg xmlns="http://www.w3.org/2000/svg" xmlns:xlink="http://www.w3.org/1999/xlink" width="126" zoomAndPan="magnify" viewBox="0 0 126 69.749997" height="69.75" preserveAspectRatio="xMidYMid meet" version="1.2"><defs><clipPath id="8591f541b1"><path d="M 0.746094 0.632812 L 33 0.632812 L 33 34 L 0.746094 34 Z M 0.746094 0.632812 "/></clipPath><clipPath id="036e91aeba"><rect x="0" width="33" y="0" height="34"/></clipPath><clipPath id="90a5976eec"><path d="M 25 0.632812 L 57 0.632812 L 57 34 L 25 34 Z M 25 0.632812 "/></clipPath><clipPath id="09017afcc6"><rect x="0" width="32" y="0" height="34"/></clipPath><clipPath id="4e138c5da5"><path d="M 51 0.632812 L 79 0.632812 L 79 34 L 51 34 Z M 51 0.632812 "/></clipPath><clipPath id="5bfe7bf4e9"><rect x="0" width="28" y="0" height="34"/></clipPath><clipPath id="b00aee2e05"><path d="M 75 0.632812 L 105.492188 0.632812 L 105.492188 34 L 75 34 Z M 75 0.632812 "/></clipPath><clipPath id="c811952f45"><rect x="0" width="31" y="0" height="34"/></clipPath><clipPath id="fb44c81cf6"><path d="M 5 34 L 18 34 L 18 48.9375 L 5 48.9375 Z M 5 34 "/></clipPath><clipPath id="26b214dbfe"><path d="M 0.0507812 1 L 10 1 L 10 12 L 0.0507812 12 Z M 0.0507812 1 "/></clipPath><clipPath id="d51a1e8064"><rect x="0" width="13" y="0" height="15"/></clipPath><clipPath id="7b30eda9d5"><path d="M 23 34 L 34 34 L 34 48.9375 L 23 48.9375 Z M 23 34 "/></clipPath><clipPath id="7a85992c2b"><rect x="0" width="11" y="0" height="15"/></clipPath><clipPath id="c3be55a543"><path d="M 39 34 L 53 34 L 53 48.9375 L 39 48.9375 Z M 39 34 "/></clipPath><clipPath id="1ace3ab40e"><path d="M 0.0117188 1 L 11 1 L 11 12 L 0.0117188 12 Z M 0.0117188 1 "/></clipPath><clipPath id="054cf3407a"><rect x="0" width="14" y="0" height="15"/></clipPath><clipPath id="6f0224dde4"><path d="M 56 34 L 69 34 L 69 48.9375 L 56 48.9375 Z M 56 34 "/></clipPath><clipPath id="8b73401548"><rect x="0" width="13" y="0" height="15"/></clipPath><clipPath id="b11ba68fb8"><path d="M 74 34 L 86 34 L 86 48.9375 L 74 48.9375 Z M 74 34 "/></clipPath><clipPath id="c80fdbd1e2"><path d="M 0.402344 1 L 9 1 L 9 12 L 0.402344 12 Z M 0.402344 1 "/></clipPath><clipPath id="e70193bf32"><rect x="0" width="12" y="0" height="15"/></clipPath><clipPath id="75b4a3f3fa"><path d="M 92 34 L 103 34 L 103 48.9375 L 92 48.9375 Z M 92 34 "/></clipPath><clipPath id="0a957498f8"><rect x="0" width="11" y="0" height="15"/></clipPath><clipPath id="ff5bbcc81e"><rect x="0" width="106" y="0" height="49"/></clipPath></defs><g id="352b5172b3"><g transform="matrix(1,0,0,1,10,13)"><g clip-path="url(#ff5bbcc81e)"><g clip-rule="nonzero" clip-path="url(#8591f541b1)"><g transform="matrix(1,0,0,1,-0.000000000000003553,-0.000000000000003553)"><g id="ee09d030c4" clip-path="url(#036e91aeba)"><g style="fill:#ffffff;fill-opacity:1;"><g transform="translate(0.76886, 25.443848)"><path style="stroke:none" d="M 22.515625 -19.171875 L 29.890625 -3.015625 C 30.140625 -2.484375 30.160156 -1.945312 29.953125 -1.40625 C 29.742188 -0.863281 29.375 -0.472656 28.84375 -0.234375 C 28.570312 -0.0976562 28.285156 -0.03125 27.984375 -0.03125 C 27.578125 -0.03125 27.195312 -0.140625 26.84375 -0.359375 C 26.5 -0.578125 26.238281 -0.878906 26.0625 -1.265625 L 18.703125 -17.453125 C 18.421875 -18.066406 17.992188 -18.550781 17.421875 -18.90625 C 16.847656 -19.257812 16.226562 -19.4375 15.5625 -19.4375 C 14.875 -19.4375 14.25 -19.257812 13.6875 -18.90625 C 13.125 -18.550781 12.703125 -18.066406 12.421875 -17.453125 L 5.03125 -1.265625 C 4.8125 -0.734375 4.425781 -0.367188 3.875 -0.171875 C 3.320312 0.0234375 2.78125 0.00390625 2.25 -0.234375 C 1.71875 -0.472656 1.351562 -0.863281 1.15625 -1.40625 C 0.957031 -1.945312 0.976562 -2.484375 1.21875 -3.015625 L 8.578125 -19.171875 C 9.210938 -20.535156 10.160156 -21.625 11.421875 -22.4375 C 12.679688 -23.257812 14.0625 -23.671875 15.5625 -23.671875 C 17.0625 -23.671875 18.441406 -23.257812 19.703125 -22.4375 C 20.960938 -21.625 21.898438 -20.535156 22.515625 -19.171875 Z M 15.5625 -11.421875 C 16.269531 -11.421875 16.90625 -11.25 17.46875 -10.90625 C 18.03125 -10.5625 18.476562 -10.109375 18.8125 -9.546875 C 19.15625 -8.984375 19.328125 -8.347656 19.328125 -7.640625 C 19.328125 -6.960938 19.15625 -6.335938 18.8125 -5.765625 C 18.476562 -5.191406 18.03125 -4.734375 17.46875 -4.390625 C 16.90625 -4.046875 16.269531 -3.875 15.5625 -3.875 C 14.875 -3.875 14.242188 -4.046875 13.671875 -4.390625 C 13.097656 -4.734375 12.640625 -5.191406 12.296875 -5.765625 C 11.953125 -6.335938 11.78125 -6.960938 11.78125 -7.640625 C 11.78125 -8.347656 11.953125 -8.984375 12.296875 -9.546875 C 12.640625 -10.109375 13.097656 -10.5625 13.671875 -10.90625 C 14.242188 -11.25 14.875 -11.421875 15.5625 -11.421875 Z M 15.5625 -11.421875 "/></g></g></g></g></g><g clip-rule="nonzero" clip-path="url(#90a5976eec)"><g transform="matrix(1,0,0,1,25,-0.000000000000003553)"><g id="874a8b9d85" clip-path="url(#09017afcc6)"><g style="fill:#ffffff;fill-opacity:1;"><g transform="translate(0.343626, 25.443848)"><path style="stroke:none" d="M 26.953125 -4.234375 C 27.523438 -4.234375 28.019531 -4.03125 28.4375 -3.625 C 28.851562 -3.21875 29.0625 -2.726562 29.0625 -2.15625 C 29.0625 -1.5625 28.851562 -1.054688 28.4375 -0.640625 C 28.019531 -0.234375 27.523438 -0.03125 26.953125 -0.03125 L 23.578125 -0.03125 C 22.929688 -0.03125 22.410156 -0.25 22.015625 -0.6875 L 15.59375 -7.640625 L 6.515625 -7.640625 L 6.515625 -2.15625 C 6.515625 -1.5625 6.304688 -1.054688 5.890625 -0.640625 C 5.472656 -0.234375 4.976562 -0.03125 4.40625 -0.03125 C 3.832031 -0.03125 3.335938 -0.234375 2.921875 -0.640625 C 2.515625 -1.054688 2.3125 -1.5625 2.3125 -2.15625 L 2.3125 -9.765625 C 2.3125 -10.335938 2.515625 -10.832031 2.921875 -11.25 C 3.335938 -11.675781 3.832031 -11.890625 4.40625 -11.890625 L 19.171875 -11.890625 C 19.878906 -11.890625 20.519531 -12.054688 21.09375 -12.390625 C 21.664062 -12.734375 22.125 -13.191406 22.46875 -13.765625 C 22.8125 -14.347656 22.984375 -14.976562 22.984375 -15.65625 C 22.984375 -16.363281 22.8125 -17.003906 22.46875 -17.578125 C 22.125 -18.148438 21.664062 -18.609375 21.09375 -18.953125 C 20.519531 -19.296875 19.878906 -19.46875 19.171875 -19.46875 L 4.40625 -19.46875 C 3.832031 -19.46875 3.335938 -19.671875 2.921875 -20.078125 C 2.515625 -20.484375 2.3125 -20.972656 2.3125 -21.546875 C 2.3125 -22.128906 2.515625 -22.628906 2.921875 -23.046875 C 3.335938 -23.460938 3.832031 -23.671875 4.40625 -23.671875 L 19.171875 -23.671875 C 20.253906 -23.671875 21.28125 -23.46875 22.25 -23.0625 C 23.21875 -22.65625 24.078125 -22.078125 24.828125 -21.328125 C 26.398438 -19.753906 27.1875 -17.863281 27.1875 -15.65625 C 27.1875 -13.445312 26.398438 -11.5625 24.828125 -10 C 23.773438 -8.9375 22.539062 -8.238281 21.125 -7.90625 L 24.5 -4.234375 Z M 26.953125 -4.234375 "/></g></g></g></g></g><g clip-rule="nonzero" clip-path="url(#4e138c5da5)"><g transform="matrix(1,0,0,1,51,-0.000000000000003553)"><g id="9f6b00bb45" clip-path="url(#5bfe7bf4e9)"><g style="fill:#1e93ef;fill-opacity:1;"><g transform="translate(0.848758, 25.443848)"><path style="stroke:none" d="M 24.703125 -23.4375 C 25.234375 -23.175781 25.585938 -22.769531 25.765625 -22.21875 C 25.941406 -21.664062 25.894531 -21.125 25.625 -20.59375 L 22.6875 -14.734375 C 21.757812 -12.992188 20.476562 -11.613281 18.84375 -10.59375 C 17.800781 -9.957031 16.695312 -9.523438 15.53125 -9.296875 L 15.53125 -2.15625 C 15.53125 -1.5625 15.320312 -1.054688 14.90625 -0.640625 C 14.5 -0.234375 14.007812 -0.03125 13.4375 -0.03125 C 12.863281 -0.03125 12.367188 -0.234375 11.953125 -0.640625 C 11.535156 -1.054688 11.328125 -1.5625 11.328125 -2.15625 L 11.328125 -9.296875 C 10.128906 -9.546875 9.023438 -9.976562 8.015625 -10.59375 C 6.335938 -11.65625 5.066406 -13.035156 4.203125 -14.734375 L 1.21875 -20.59375 C 0.957031 -21.125 0.921875 -21.664062 1.109375 -22.21875 C 1.296875 -22.769531 1.644531 -23.175781 2.15625 -23.4375 C 2.65625 -23.707031 3.1875 -23.75 3.75 -23.5625 C 4.320312 -23.375 4.738281 -23.023438 5 -22.515625 L 7.953125 -16.65625 C 8.472656 -15.613281 9.226562 -14.789062 10.21875 -14.1875 C 11.21875 -13.582031 12.289062 -13.28125 13.4375 -13.28125 C 14.613281 -13.28125 15.6875 -13.582031 16.65625 -14.1875 C 17.625 -14.789062 18.375 -15.613281 18.90625 -16.65625 L 21.890625 -22.515625 C 22.148438 -23.023438 22.554688 -23.375 23.109375 -23.5625 C 23.660156 -23.75 24.191406 -23.707031 24.703125 -23.4375 Z M 24.703125 -23.4375 "/></g></g></g></g></g><g clip-rule="nonzero" clip-path="url(#b00aee2e05)"><g transform="matrix(1,0,0,1,75,-0.000000000000003553)"><g id="4cf5058712" clip-path="url(#c811952f45)"><g style="fill:#ffffff;fill-opacity:1;"><g transform="translate(0.742286, 25.443848)"><path style="stroke:none" d="M 25.0625 -23.671875 C 25.632812 -23.671875 26.128906 -23.460938 26.546875 -23.046875 C 26.972656 -22.628906 27.1875 -22.128906 27.1875 -21.546875 C 27.1875 -20.972656 26.972656 -20.484375 26.546875 -20.078125 C 26.128906 -19.671875 25.632812 -19.46875 25.0625 -19.46875 L 4.40625 -19.46875 C 3.832031 -19.46875 3.335938 -19.671875 2.921875 -20.078125 C 2.515625 -20.484375 2.3125 -20.972656 2.3125 -21.546875 C 2.3125 -22.128906 2.515625 -22.628906 2.921875 -23.046875 C 3.335938 -23.460938 3.832031 -23.671875 4.40625 -23.671875 Z M 25.0625 -4.234375 C 25.632812 -4.234375 26.128906 -4.03125 26.546875 -3.625 C 26.972656 -3.21875 27.1875 -2.726562 27.1875 -2.15625 C 27.1875 -1.5625 26.972656 -1.054688 26.546875 -0.640625 C 26.128906 -0.234375 25.632812 -0.03125 25.0625 -0.03125 L 4.40625 -0.03125 C 3.832031 -0.03125 3.335938 -0.234375 2.921875 -0.640625 C 2.515625 -1.054688 2.3125 -1.5625 2.3125 -2.15625 C 2.3125 -2.726562 2.515625 -3.21875 2.921875 -3.625 C 3.335938 -4.03125 3.832031 -4.234375 4.40625 -4.234375 Z M 25.0625 -13.9375 C 25.632812 -13.9375 26.128906 -13.734375 26.546875 -13.328125 C 26.972656 -12.921875 27.1875 -12.429688 27.1875 -11.859375 C 27.1875 -11.285156 26.972656 -10.785156 26.546875 -10.359375 C 26.128906 -9.941406 25.632812 -9.734375 25.0625 -9.734375 L 4.40625 -9.734375 C 3.832031 -9.734375 3.335938 -9.941406 2.921875 -10.359375 C 2.515625 -10.785156 2.3125 -11.285156 2.3125 -11.859375 C 2.3125 -12.429688 2.515625 -12.921875 2.921875 -13.328125 C 3.335938 -13.734375 3.832031 -13.9375 4.40625 -13.9375 Z M 25.0625 -13.9375 "/></g></g></g></g></g><g clip-rule="nonzero" clip-path="url(#fb44c81cf6)"><g transform="matrix(1,0,0,1,5,34)"><g id="ff7ef54487" clip-path="url(#d51a1e8064)"><g clip-rule="nonzero" clip-path="url(#26b214dbfe)"><g style="fill:#ffffff;fill-opacity:1;"><g transform="translate(0.197254, 11.342807)"><path style="stroke:none" d="M 4.921875 -5.453125 L 8.859375 -5.453125 L 8.859375 -0.515625 C 7.609375 -0.0351562 6.367188 0.207031 5.140625 0.21875 C 3.710938 0.21875 2.578125 -0.234375 1.734375 -1.140625 C 0.890625 -2.046875 0.46875 -3.300781 0.46875 -4.90625 C 0.46875 -6.476562 0.910156 -7.722656 1.796875 -8.640625 C 2.679688 -9.554688 3.816406 -10.015625 5.203125 -10.015625 C 6.722656 -10.015625 7.941406 -9.554688 8.859375 -8.640625 L 8.140625 -7.8125 C 7.398438 -8.550781 6.429688 -8.914062 5.234375 -8.90625 C 4.179688 -8.90625 3.320312 -8.546875 2.65625 -7.828125 C 1.988281 -7.097656 1.65625 -6.125 1.65625 -4.90625 C 1.65625 -3.675781 1.976562 -2.703125 2.625 -1.984375 C 3.269531 -1.265625 4.132812 -0.90625 5.21875 -0.90625 C 6.15625 -0.90625 6.984375 -1.0625 7.703125 -1.375 L 7.703125 -4.484375 L 4.921875 -4.484375 Z M 4.921875 -5.453125 "/></g></g></g></g></g></g><g clip-rule="nonzero" clip-path="url(#7b30eda9d5)"><g transform="matrix(1,0,0,1,23,34)"><g id="45d790e697" clip-path="url(#7a85992c2b)"><g style="fill:#ffffff;fill-opacity:1;"><g transform="translate(0.863222, 11.369171)"><path style="stroke:none" d="M 1.21875 -9.8125 L 2.375 -9.8125 L 2.375 -1.046875 L 6.65625 -1.046875 L 6.65625 0 L 1.21875 0 Z M 1.21875 -9.8125 "/></g></g></g></g></g><g clip-rule="nonzero" clip-path="url(#c3be55a543)"><g transform="matrix(1,0,0,1,39,34)"><g id="e5f3dd6506" clip-path="url(#054cf3407a)"><g clip-rule="nonzero" clip-path="url(#1ace3ab40e)"><g style="fill:#ffffff;fill-opacity:1;"><g transform="translate(0.0875556, 11.369171)"><path style="stroke:none" d="M 5.25 0.21875 C 3.820312 0.21875 2.671875 -0.25 1.796875 -1.1875 C 0.910156 -2.125 0.46875 -3.390625 0.46875 -4.984375 C 0.46875 -6.535156 0.921875 -7.765625 1.828125 -8.671875 C 2.722656 -9.578125 3.863281 -10.03125 5.25 -10.03125 C 5.914062 -10.03125 6.535156 -9.914062 7.109375 -9.6875 C 7.691406 -9.46875 8.203125 -9.144531 8.640625 -8.71875 C 9.078125 -8.28125 9.421875 -7.742188 9.671875 -7.109375 C 9.921875 -6.472656 10.046875 -5.765625 10.046875 -4.984375 C 10.046875 -3.367188 9.609375 -2.097656 8.734375 -1.171875 C 7.859375 -0.242188 6.695312 0.21875 5.25 0.21875 Z M 5.25 -0.90625 C 6.320312 -0.90625 7.1875 -1.273438 7.84375 -2.015625 C 8.5 -2.742188 8.828125 -3.734375 8.828125 -4.984375 C 8.828125 -6.171875 8.492188 -7.125 7.828125 -7.84375 C 7.160156 -8.5625 6.300781 -8.921875 5.25 -8.921875 C 4.1875 -8.921875 3.328125 -8.5625 2.671875 -7.84375 C 2.015625 -7.125 1.6875 -6.171875 1.6875 -4.984375 C 1.6875 -3.742188 2.019531 -2.753906 2.6875 -2.015625 C 3.351562 -1.273438 4.207031 -0.90625 5.25 -0.90625 Z M 5.25 -0.90625 "/></g></g></g></g></g></g><g clip-rule="nonzero" clip-path="url(#6f0224dde4)"><g transform="matrix(1,0,0,1,56,34)"><g id="7aa3489480" clip-path="url(#8b73401548)"><g style="fill:#ffffff;fill-opacity:1;"><g transform="translate(0.842937, 11.369171)"><path style="stroke:none" d="M 6.4375 -5.234375 C 6.738281 -5.179688 7.007812 -5.085938 7.25 -4.953125 C 7.5 -4.816406 7.707031 -4.648438 7.875 -4.453125 C 8.050781 -4.253906 8.1875 -4.019531 8.28125 -3.75 C 8.375 -3.476562 8.421875 -3.175781 8.421875 -2.84375 C 8.421875 -1.96875 8.140625 -1.273438 7.578125 -0.765625 C 7.023438 -0.253906 6.242188 0 5.234375 0 L 1.328125 0 L 1.328125 -9.8125 L 5.078125 -9.8125 C 5.984375 -9.8125 6.671875 -9.613281 7.140625 -9.21875 C 7.617188 -8.832031 7.859375 -8.253906 7.859375 -7.484375 C 7.859375 -6.960938 7.734375 -6.503906 7.484375 -6.109375 C 7.242188 -5.722656 6.894531 -5.429688 6.4375 -5.234375 Z M 6.71875 -7.28125 C 6.71875 -8.289062 6.101562 -8.796875 4.875 -8.796875 L 2.46875 -8.796875 L 2.46875 -5.484375 L 4.953125 -5.484375 C 5.441406 -5.484375 5.859375 -5.644531 6.203125 -5.96875 C 6.546875 -6.289062 6.71875 -6.726562 6.71875 -7.28125 Z M 5.234375 -1.015625 C 5.847656 -1.015625 6.335938 -1.179688 6.703125 -1.515625 C 7.066406 -1.859375 7.25 -2.335938 7.25 -2.953125 C 7.25 -3.546875 7.066406 -3.984375 6.703125 -4.265625 C 6.347656 -4.546875 5.851562 -4.6875 5.21875 -4.6875 L 2.46875 -4.6875 L 2.46875 -1.015625 Z M 5.234375 -1.015625 "/></g></g></g></g></g><g clip-rule="nonzero" clip-path="url(#b11ba68fb8)"><g transform="matrix(1,0,0,1,74,34)"><g id="ffb9f1123a" clip-path="url(#e70193bf32)"><g clip-rule="nonzero" clip-path="url(#c80fdbd1e2)"><g style="fill:#ffffff;fill-opacity:1;"><g transform="translate(0.48375, 11.369171)"><path style="stroke:none" d="M 7.078125 0 L 6.28125 -2.375 L 2.1875 -2.375 L 1.421875 0 L 0.296875 0 L 3.53125 -9.8125 L 4.890625 -9.8125 L 8.296875 0 Z M 2.5 -3.328125 L 5.953125 -3.328125 L 4.1875 -8.59375 Z M 2.5 -3.328125 "/></g></g></g></g></g></g><g clip-rule="nonzero" clip-path="url(#75b4a3f3fa)"><g transform="matrix(1,0,0,1,92,34)"><g id="8fef5d7a2f" clip-path="url(#0a957498f8)"><g style="fill:#ffffff;fill-opacity:1;"><g transform="translate(0.874197, 11.369171)"><path style="stroke:none" d="M 1.21875 -9.8125 L 2.375 -9.8125 L 2.375 -1.046875 L 6.65625 -1.046875 L 6.65625 0 L 1.21875 0 Z M 1.21875 -9.8125 "/></g></g></g></g></g></g></g></g></svg>